<svg id="visual" viewBox="0 0 540 960" width="540" height="960" xmlns="http://www.w3.org/2000/svg" xmlns:xlink="http://www.w3.org/1999/xlink" version="1.1"><rect x="0" y="0" width="540" height="960" fill="#002233"></rect><path d="M0 849L15 849.2C30 849.3 60 849.7 90 846.2C120 842.7 150 835.3 180 828C210 820.7 240 813.3 270 804.2C300 795 330 784 360 783.5C390 783 420 793 450 807C480 821 510 839 525 848L540 857L540 961L525 961C510 961 480 961 450 961C420 961 390 961 360 961C330 961 300 961 270 961C240 961 210 961 180 961C150 961 120 961 90 961C60 961 30 961 15 961L0 961Z" fill="#3366ff" stroke-linecap="round" stroke-linejoin="miter"></path></svg>