<svg width="1095" height="220" viewBox="0 0 1095 220" fill="none" xmlns="http://www.w3.org/2000/svg">
<path d="M0 0L26.0823 8.17361C52.1646 16.0417 104.177 32.8472 156.646 61.1111C208.582 89.375 260.823 130.625 312.531 146.667C365 162.708 417.469 155.069 469.177 134.444C521.418 113.819 573.354 81.7361 625.823 73.3333C677.835 64.9306 730 81.7361 782.469 97.7778C834.253 113.819 886.646 130.625 938.354 150.715C990.747 171.111 1042.53 195.556 1069.15 207.778L1095 220H1068.92C1042.84 220 990.823 220 938.354 220C886.418 220 834.177 220 782.469 220C730 220 677.531 220 625.823 220C573.582 220 521.646 220 469.177 220C417.165 220 365 220 312.531 220C260.747 220 208.354 220 156.646 220C104.253 220 52.4688 220 25.8542 220H0V0Z" fill="#3366FF"/>
</svg>
